<svg width="256" height="256" viewBox="0 0 256 256" fill="none" xmlns="http://www.w3.org/2000/svg">
<path d="M87.6411 164.792L75.6369 152.787C75.2597 152.412 74.7676 152.173 74.2389 152.11C73.7103 152.046 73.1757 152.162 72.7203 152.437C68.2683 155.123 63.1676 156.543 57.9682 156.543C52.7688 156.543 47.6681 155.123 43.2161 152.437C42.7598 152.164 42.2258 152.051 41.6979 152.114C41.17 152.177 40.6781 152.414 40.2994 152.787L28.2952 164.792C27.9191 165.158 27.6734 165.637 27.5959 166.157C27.5184 166.676 27.6133 167.206 27.8661 167.667C28.0366 167.973 28.2728 168.237 28.5577 168.442C37.1025 174.654 47.3955 178 57.9598 178C68.5242 178 78.8172 174.654 87.362 168.442C87.6455 168.237 87.8814 167.974 88.0533 167.67C88.2252 167.365 88.3291 167.027 88.3578 166.679C88.3826 166.331 88.3314 165.982 88.2076 165.656C88.0838 165.33 87.8905 165.035 87.6411 164.792ZM87.6495 91.1748L75.6494 103.175C75.2731 103.553 74.78 103.794 74.2499 103.858C73.7198 103.921 73.1838 103.804 72.7286 103.525C66.5171 99.7812 59.1144 98.5399 52.0216 100.053C44.9287 101.565 38.6765 105.719 34.5327 111.671C31.3876 116.2 29.6193 121.542 29.4411 127.054C29.2581 132.565 30.6733 138.012 33.5161 142.737C33.7907 143.192 33.9057 143.725 33.8431 144.253C33.7805 144.78 33.5437 145.272 33.1702 145.65L21.1661 157.65C20.9258 157.896 20.6348 158.086 20.3134 158.208C19.992 158.329 19.6479 158.379 19.3051 158.354C18.9624 158.329 18.6292 158.23 18.3288 158.063C18.0285 157.896 17.7681 157.665 17.5661 157.387C10.0473 147.055 6.77235 134.235 8.41452 121.563C10.0567 108.89 16.4912 97.3284 26.3952 89.2539C34.9464 82.275 45.5681 78.3244 56.6015 78.0191C67.6349 77.7138 78.4588 81.071 87.3828 87.5664C87.6612 87.7686 87.892 88.0293 88.059 88.3302C88.226 88.6311 88.3251 88.9649 88.3495 89.3081C88.375 89.6514 88.3257 89.9961 88.2048 90.3185C88.0839 90.6408 87.8944 90.933 87.6495 91.1748ZM57.9911 142.262C59.8663 142.262 61.7231 141.893 63.4555 141.175C65.1879 140.458 66.762 139.406 68.088 138.08C69.4139 136.754 70.4657 135.18 71.1833 133.448C71.9009 131.715 72.2703 129.858 72.2703 127.983C72.2703 126.108 71.9009 124.251 71.1833 122.519C70.4657 120.786 69.4139 119.212 68.088 117.886C66.762 116.56 65.1879 115.509 63.4555 114.791C61.7231 114.073 59.8663 113.704 57.9911 113.704C54.204 113.704 50.5721 115.208 47.8942 117.886C45.2163 120.564 43.7119 124.196 43.7119 127.983C43.7119 131.77 45.2163 135.402 47.8942 138.08C50.5721 140.758 54.204 142.262 57.9911 142.262Z" fill="black"/>
<path d="M130.031 124.492V131.289H91.0469V124.492H130.031ZM114.172 107.891V149.297H106.945V107.891H114.172Z" fill="black"/>
<path d="M185.537 78.0032C182.865 78.0405 180.203 78.3422 177.591 78.9039L175.571 79.5727C171.531 80.9238 168.187 82.9393 166.207 85.5834L164.865 87.5989L155.791 103.33C157.691 101.605 160.134 100.218 163.117 99.3439L165.855 98.6572C168.458 98.0832 171.118 97.7755 173.783 97.7386C186.785 97.5023 200.684 102.858 211.341 108.262C221.673 113.501 228.678 118.607 229.119 118.919L241.016 99.0942C240.65 98.8266 233.614 93.6988 223.22 88.455C212.55 83.0775 198.602 77.7713 185.541 78.0076L185.537 78.0032ZM173.792 98.4164C171.174 98.4528 168.567 98.7561 166.011 99.3216L163.309 99.9949C157.61 101.671 153.967 105.167 152.474 109.394C150.984 113.622 151.635 118.602 154.645 123.289C156.117 125.206 157.976 126.914 160.067 128.403L188.97 119.079H188.975C193.493 117.742 198.257 117.454 202.903 118.237C207.55 119.02 211.956 120.853 215.787 123.596L228.468 119.302C227.71 118.749 221.053 113.952 211.033 108.868C200.426 103.491 186.603 98.1845 173.792 98.4164ZM198.027 118.468C195.032 118.449 192.05 118.875 189.18 119.73L147.109 133.299L134 156.241L175.362 142.899C181.269 141.136 187.569 141.175 193.453 143.014C199.338 144.852 204.54 148.405 208.394 153.217C211.493 157.244 212.362 161.721 211.337 165.743L222.805 145.098C225.458 140.456 224.812 135.176 221.459 129.808C218.642 126.294 215.077 123.454 211.023 121.492C206.97 119.531 202.53 118.498 198.027 118.468ZM184.511 142.284C181.483 142.255 178.468 142.68 175.567 143.546L134.036 156.945C134.816 157.529 143.043 163.625 154.935 169.288C167.407 175.227 183.339 180.288 197.153 176.921L199.177 176.244H199.186C204.885 174.567 208.701 171.062 210.275 166.924C211.849 162.777 211.198 157.988 207.863 153.645C205.057 150.138 201.506 147.299 197.467 145.334C193.428 143.369 189.003 142.327 184.511 142.284Z" fill="black"/>
</svg>
