<svg width="234" height="100" viewBox="0 0 234 100" fill="none" xmlns="http://www.w3.org/2000/svg">
<path d="M79.6411 86.7915L67.6369 74.7873C67.2597 74.4116 66.7676 74.173 66.2389 74.1096C65.7103 74.0461 65.1757 74.1615 64.7203 74.4373C60.2683 77.1231 55.1676 78.5426 49.9682 78.5426C44.7688 78.5426 39.6681 77.1231 35.2161 74.4373C34.7598 74.1644 34.2258 74.0506 33.6979 74.114C33.17 74.1773 32.6781 74.4142 32.2994 74.7873L20.2952 86.7915C19.9191 87.1578 19.6734 87.6374 19.5959 88.1567C19.5184 88.676 19.6133 89.2063 19.8661 89.6665C20.0366 89.9727 20.2728 90.2374 20.5577 90.4415C29.1025 96.6538 39.3955 100 49.9598 100C60.5242 100 70.8172 96.6538 79.362 90.4415C79.6455 90.2372 79.8814 89.9739 80.0533 89.6696C80.2252 89.3653 80.3291 89.0273 80.3578 88.679C80.3826 88.3312 80.3314 87.9822 80.2076 87.6562C80.0838 87.3303 79.8905 87.0352 79.6411 86.7915ZM79.6495 13.1748L67.6494 25.1748C67.2731 25.5535 66.78 25.7941 66.2499 25.8576C65.7198 25.9211 65.1838 25.8038 64.7286 25.5248C58.5171 21.7812 51.1144 20.5399 44.0216 22.0526C36.9287 23.5652 30.6765 27.7186 26.5327 33.6706C23.3876 38.2001 21.6193 43.5425 21.4411 49.054C21.2581 54.5654 22.6733 60.0121 25.5161 64.7373C25.7907 65.1921 25.9057 65.7254 25.8431 66.2529C25.7805 66.7805 25.5437 67.272 25.1702 67.6498L13.1661 79.6498C12.9258 79.8956 12.6348 80.0859 12.3134 80.2076C11.992 80.3293 11.6479 80.3793 11.3051 80.3543C10.9624 80.3294 10.6292 80.2299 10.3288 80.0629C10.0285 79.8959 9.76815 79.6653 9.56606 79.3873C2.04727 69.0551 -1.22765 56.2351 0.414521 43.5627C2.0567 30.8902 8.49118 19.3284 18.3952 11.2539C26.9464 4.27501 37.5681 0.324413 48.6015 0.0191238C59.6349 -0.286166 70.4588 3.07104 79.3828 9.56644C79.6612 9.76865 79.892 10.0293 80.059 10.3302C80.226 10.6311 80.3251 10.9649 80.3495 11.3081C80.375 11.6514 80.3257 11.9961 80.2048 12.3185C80.0839 12.6408 79.8944 12.933 79.6495 13.1748ZM49.9911 64.2623C51.8663 64.2623 53.7231 63.893 55.4555 63.1754C57.1879 62.4578 58.762 61.406 60.088 60.0801C61.4139 58.7541 62.4657 57.18 63.1833 55.4476C63.9009 53.7151 64.2703 51.8583 64.2703 49.9831C64.2703 48.108 63.9009 46.2512 63.1833 44.5187C62.4657 42.7863 61.4139 41.2122 60.088 39.8862C58.762 38.5603 57.1879 37.5085 55.4555 36.7909C53.7231 36.0733 51.8663 35.704 49.9911 35.704C46.204 35.704 42.5721 37.2084 39.8942 39.8862C37.2163 42.5641 35.7119 46.1961 35.7119 49.9831C35.7119 53.7702 37.2163 57.4022 39.8942 60.0801C42.5721 62.7579 46.204 64.2623 49.9911 64.2623Z" fill="black"/>
<path d="M122.031 46.4922V53.2891H83.0469V46.4922H122.031ZM106.172 29.8906V71.2969H98.9453V29.8906H106.172Z" fill="black"/>
<path d="M177.537 0.00315244C174.865 0.0405033 172.203 0.342212 169.591 0.903868L167.571 1.57272C163.531 2.92379 160.187 4.93925 158.207 7.58343L156.865 9.59889L147.791 25.3302C149.691 23.6046 152.134 22.2178 155.117 21.3439L157.855 20.6572C160.458 20.0832 163.118 19.7755 165.783 19.7386C178.785 19.5023 192.684 24.8575 203.341 30.2618C213.673 35.5011 220.678 40.6067 221.119 40.9188L233.016 21.0942C232.65 20.8266 225.614 15.6988 215.22 10.455C204.55 5.07748 190.602 -0.228715 177.541 0.00761137L177.537 0.00315244ZM165.792 20.4164C163.174 20.4528 160.567 20.7561 158.011 21.3216L155.309 21.9949C149.61 23.6715 145.967 27.1673 144.474 31.3944C142.984 35.6215 143.635 40.6022 146.645 45.2886C148.117 47.206 149.976 48.9138 152.067 50.4031L180.97 41.0793H180.975C185.493 39.7422 190.257 39.4541 194.903 40.2369C199.55 41.0196 203.956 42.8527 207.787 45.5963L220.468 41.3023C219.71 40.7494 213.053 35.9515 203.033 30.8683C192.426 25.4907 178.603 20.1845 165.792 20.4164ZM190.027 40.4685C187.032 40.4493 184.05 40.8745 181.18 41.7303L139.109 55.299L126 78.2405L167.362 64.8992C173.269 63.1356 179.569 63.1755 185.453 65.0137C191.338 66.8519 196.54 70.4048 200.394 75.2173C203.493 79.2438 204.362 83.7206 203.337 87.7426L214.805 67.0975C217.458 62.4557 216.812 57.1763 213.459 51.8077C210.642 48.2944 207.077 45.4536 203.023 43.4921C198.97 41.5305 194.53 40.4976 190.027 40.4685ZM176.511 64.2839C173.483 64.2547 170.468 64.68 167.567 65.5458L126.036 78.9451C126.816 79.5292 135.043 85.6246 146.935 91.2875C159.407 97.2269 175.339 102.288 189.153 98.9213L191.177 98.2435H191.186C196.885 96.567 200.701 93.0622 202.275 88.9243C203.849 84.7774 203.198 79.9885 199.863 75.6454C197.057 72.1383 193.506 69.2994 189.467 67.3343C185.428 65.3692 181.003 64.3273 176.511 64.2839Z" fill="black"/>
</svg>
